<svg viewBox="0 0 26 26" fill="none" xmlns="http://www.w3.org/2000/svg">
<g stroke="currentColor" fill="transparent">
<circle cx="13" cy="13" r="13" fill="#1F1E1E"/>
<path d="M19.7099 8.2101C19.617 8.11638 19.5064 8.04198 19.3845 7.99121C19.2627 7.94044 19.132 7.91431 18.9999 7.91431C18.8679 7.91431 18.7372 7.94044 18.6154 7.99121C18.4935 8.04198 18.3829 8.11638 18.29 8.2101L10.84 15.6701L7.70995 12.5301C7.61343 12.4369 7.49949 12.3636 7.37463 12.3143C7.24978 12.2651 7.11645 12.241 6.98227 12.2433C6.84809 12.2457 6.71568 12.2744 6.5926 12.3279C6.46953 12.3814 6.35819 12.4586 6.26495 12.5551C6.17171 12.6516 6.0984 12.7656 6.04919 12.8904C5.99999 13.0153 5.97586 13.1486 5.97818 13.2828C5.9805 13.417 6.00923 13.5494 6.06272 13.6725C6.11622 13.7955 6.19343 13.9069 6.28995 14.0001L10.13 17.8401C10.2229 17.9338 10.3335 18.0082 10.4554 18.059C10.5772 18.1098 10.7079 18.1359 10.84 18.1359C10.972 18.1359 11.1027 18.1098 11.2245 18.059C11.3464 18.0082 11.457 17.9338 11.55 17.8401L19.7099 9.68011C19.8115 9.58646 19.8925 9.47281 19.9479 9.34631C20.0033 9.21981 20.0319 9.08321 20.0319 8.94511C20.0319 8.807 20.0033 8.6704 19.9479 8.5439C19.8925 8.4174 19.8115 8.30375 19.7099 8.2101Z" fill="white"/>
</g>
</svg>