<svg width="20" height="20" viewBox="0 0 20 20" fill="none" xmlns="http://www.w3.org/2000/svg">
<path d="M20.0001 14.9201V17.9201C20.0012 18.1986 19.9441 18.4743 19.8326 18.7294C19.721 18.9846 19.5574 19.2137 19.3521 19.402C19.1469 19.5902 18.9046 19.7336 18.6408 19.8228C18.377 19.912 18.0974 19.9452 17.8201 19.9201C14.7429 19.5857 11.7871 18.5342 9.19005 16.8501C6.77388 15.3148 4.72539 13.2663 3.19006 10.8501C1.50003 8.2413 0.448298 5.27109 0.120055 2.1801C0.0950657 1.90356 0.12793 1.62486 0.216556 1.36172C0.305181 1.09859 0.447626 0.856786 0.634821 0.651718C0.822016 0.44665 1.04986 0.282806 1.30385 0.170619C1.55783 0.0584315 1.8324 0.000358432 2.11006 9.69523e-05H5.11006C5.59536 -0.00467949 6.06585 0.167176 6.43382 0.48363C6.80179 0.800084 7.04213 1.23954 7.11005 1.7201C7.23668 2.68016 7.47151 3.62282 7.81006 4.5301C7.9446 4.88802 7.97372 5.27701 7.89396 5.65098C7.81421 6.02494 7.62892 6.36821 7.36005 6.6401L6.09006 7.9101C7.51361 10.4136 9.58651 12.4865 12.0901 13.9101L13.3601 12.6401C13.6319 12.3712 13.9752 12.1859 14.3492 12.1062C14.7231 12.0264 15.1121 12.0556 15.4701 12.1901C16.3773 12.5286 17.32 12.7635 18.2801 12.8901C18.7658 12.9586 19.2095 13.2033 19.5266 13.5776C19.8437 13.9519 20.0122 14.4297 20.0001 14.9201Z" fill="#BC3324"/>
</svg>
