<svg width="20" height="18" viewBox="0 0 20 18" fill="none" xmlns="http://www.w3.org/2000/svg">
<path d="M14.48 7.41005C14.09 7.80005 13.44 7.80005 13.05 7.41005L8.58004 2.95005L1.53004 9.99005L0.870036 9.36005C0.308234 8.79755 -0.00732422 8.03505 -0.00732422 7.24005C-0.00732422 6.44505 0.308234 5.68255 0.870036 5.12005L5.11004 0.88005C5.67254 0.318248 6.43503 0.00268962 7.23004 0.00268962C8.02504 0.00268962 8.78753 0.318248 9.35004 0.88005L14.48 6.00005C14.87 6.39005 14.87 7.02005 14.48 7.41005ZM15.18 5.29005C15.96 6.07005 15.96 7.34005 15.18 8.12005C13.91 9.39005 12.57 8.34005 12.35 8.12005L8.59004 4.36005L3.02004 9.93005C2.92733 10.0226 2.85378 10.1325 2.8036 10.2534C2.75342 10.3744 2.72759 10.5041 2.72759 10.635C2.72759 10.766 2.75342 10.8957 2.8036 11.0167C2.85378 11.1376 2.92733 11.2475 3.02004 11.34C3.41004 11.7301 4.04004 11.7301 4.44004 11.34L9.06004 6.72005L9.77004 7.43005L5.15004 12.05C5.05733 12.1426 4.98378 12.2525 4.9336 12.3734C4.88342 12.4944 4.85759 12.6241 4.85759 12.755C4.85759 12.886 4.88342 13.0157 4.9336 13.1367C4.98378 13.2576 5.05733 13.3675 5.15004 13.46C5.54004 13.85 6.17004 13.85 6.57004 13.46L11.19 8.84005L11.9 9.55005L7.28004 14.17C7.18745 14.2626 7.11401 14.3725 7.06391 14.4935C7.0138 14.6145 6.98802 14.7441 6.98802 14.875C6.98802 15.006 7.0138 15.1356 7.06391 15.2566C7.11401 15.3776 7.18745 15.4875 7.28004 15.58C7.37262 15.6726 7.48253 15.7461 7.60349 15.7962C7.72446 15.8463 7.8541 15.8721 7.98504 15.8721C8.11597 15.8721 8.24562 15.8463 8.36658 15.7962C8.48754 15.7461 8.59745 15.6726 8.69004 15.58L13.31 10.96L14.02 11.67L9.40004 16.2901C9.30745 16.3826 9.23401 16.4925 9.18391 16.6135C9.1338 16.7345 9.10802 16.8641 9.10802 16.9951C9.10802 17.126 9.1338 17.2556 9.18391 17.3766C9.23401 17.4976 9.30745 17.6075 9.40004 17.7001C9.58701 17.887 9.84061 17.9921 10.105 17.9921C10.236 17.9921 10.3656 17.9663 10.4866 17.9162C10.6075 17.8661 10.7175 17.7926 10.81 17.7001L19.13 9.36005C19.6918 8.79755 20.0074 8.03505 20.0074 7.24005C20.0074 6.44505 19.6918 5.68255 19.13 5.12005L14.89 0.88005C14.3379 0.328479 13.5926 0.0137082 12.8122 0.00250675C12.0318 -0.00869474 11.2778 0.284554 10.71 0.82005L15.18 5.29005Z" fill="#BC3324"/>
</svg>
