<svg xmlns="http://www.w3.org/2000/svg" fill="none" width="80" height="58" viewBox="0 0 202 147">
  <path fill="#1f1e1e" d="M0 0h147v147H0z" />
  <path fill="#fff" fill-rule="evenodd" d="M26.6335 72.439H39.9655V73H21.9145V49.999H26.6005V50.032H26.6335V72.439ZM43.9316 73H62.0486V72.439H48.6176V61.285H59.1116V60.691H48.6176V50.56H62.0486V49.999H43.9316V73ZM70.6993 50.56V73H66.0133V49.999H70.6993C77.1673 49.999 81.6553 54.19 83.0743 60.328V49.999H87.7603V73H83.0743V64.453C82.4143 51.649 73.5703 50.56 70.6993 50.56ZM97.3893 73V50.56C100.26 50.56 109.104 51.649 109.764 64.453V73H114.45V49.999H109.764V60.328C108.345 54.19 103.857 49.999 97.3893 49.999H92.7033V73H97.3893ZM124.079 73H119.393V49.999H124.079V73Z" />
  <path fill="#bc3324" d="M81 92h121v42H81z" />
  <path fill="#fff" fill-rule="evenodd" d="M132.644 103.09V124H136.904V116.77H141.974L146.864 123.97H151.724L146.564 116.32C149.564 115.54 151.844 113.68 151.844 109.51C151.844 104.29 148.034 102.64 143.594 102.64C138.914 102.64 137.564 106.15 136.904 110.05V103.09H132.644ZM109.462 124H108.922L116.122 103.09H120.652L128.752 124H124.282L120.952 115.45H112.402L109.462 124ZM162.114 124V103.6H153.474V103.09H174.984V103.6H166.374V124H162.114ZM138.074 107.47C138.884 104.53 140.984 103.33 142.844 103.18C147.314 102.76 147.494 105.61 147.494 109.51C147.494 115.84 144.134 116.26 141.254 116.26H136.904C136.904 116.26 136.784 112.12 138.074 107.47ZM120.772 114.94L116.422 103.75L112.582 114.94H120.772Z" />
</svg>
