<svg viewBox="0 0 95 121" xmlns="http://www.w3.org/2000/svg" xmlns:xlink="http://www.w3.org/1999/xlink" width="95.000000" height="121.000000" fill="none" customFrame="#000000">
	<g id="5 стол">
		<rect id="Rectangle 190" width="41.000000" height="94.000000" x="27.000000" y="0.000000" fill="rgb(191,191,191)" />
		<rect id="Rectangle 190" width="40.000000" height="93.000000" x="27.500000" y="0.500000" stroke="rgb(191,191,191)" stroke-width="1.000000" />
		<path id="5" d="M48.4844 44.9033C49.3047 44.9033 50.0436 45.0954 50.7012 45.4795C51.3652 45.8571 51.8796 46.3942 52.2441 47.0908C52.6152 47.7874 52.8008 48.5915 52.8008 49.5029C52.8008 51.098 52.319 52.3219 51.3555 53.1748C50.3984 54.0277 48.9466 54.4541 47 54.4541C45.3333 54.4541 43.9727 54.1969 42.918 53.6826L42.918 50.5186C43.4844 50.779 44.1224 50.9938 44.832 51.1631C45.5482 51.3324 46.1634 51.417 46.6777 51.417C47.3939 51.417 47.944 51.2673 48.3281 50.9678C48.7122 50.6618 48.9043 50.2126 48.9043 49.6201C48.9043 49.0732 48.709 48.6468 48.3184 48.3408C47.9277 48.0348 47.3353 47.8818 46.541 47.8818C45.9355 47.8818 45.2812 47.9958 44.5781 48.2236L43.1621 47.5205L43.6992 39.9814L51.8438 39.9814L51.8438 43.1943L46.9805 43.1943L46.8047 45.0791C47.3125 44.9814 47.6738 44.9294 47.8887 44.9229C48.1035 44.9098 48.3021 44.9033 48.4844 44.9033Z" opacity="0.899999976" fill="rgb(31,30,30)" fill-rule="nonzero" />
		<circle id="Ellipse 74" cx="12" cy="12" r="12" fill="rgb(191,191,191)" />
		<circle id="Ellipse 74" cx="12" cy="12" r="11.5" stroke="rgb(191,191,191)" stroke-width="1.000000" />
		<circle id="Ellipse 75" cx="83" cy="13" r="12" fill="rgb(191,191,191)" />
		<circle id="Ellipse 75" cx="83" cy="13" r="11.5" stroke="rgb(191,191,191)" stroke-width="1.000000" />
		<circle id="Ellipse 76" cx="12" cy="45" r="12" fill="rgb(191,191,191)" />
		<circle id="Ellipse 76" cx="12" cy="45" r="11.5" stroke="rgb(191,191,191)" stroke-width="1.000000" />
		<circle id="Ellipse 77" cx="83" cy="46" r="12" fill="rgb(191,191,191)" />
		<circle id="Ellipse 77" cx="83" cy="46" r="11.5" stroke="rgb(191,191,191)" stroke-width="1.000000" />
		<circle id="Ellipse 78" cx="12" cy="78" r="12" fill="rgb(191,191,191)" />
		<circle id="Ellipse 78" cx="12" cy="78" r="11.5" stroke="rgb(191,191,191)" stroke-width="1.000000" />
		<circle id="Ellipse 79" cx="83" cy="79" r="12" fill="rgb(191,191,191)" />
		<circle id="Ellipse 79" cx="83" cy="79" r="11.5" stroke="rgb(191,191,191)" stroke-width="1.000000" />
		<circle id="Ellipse 80" cx="48" cy="109" r="12" fill="rgb(191,191,191)" />
		<circle id="Ellipse 80" cx="48" cy="109" r="11.5" stroke="rgb(191,191,191)" stroke-width="1.000000" />
	</g>
</svg>
